<svg width="44" height="44" viewBox="0 0 44 44" fill="none" xmlns="http://www.w3.org/2000/svg">
<path d="M39.9729 14.2611L27.9842 10.8359V4.85016H35.5908V6.22826H34.4569C34.1003 6.22826 33.8113 6.51718 33.8113 6.87382V9.54322C33.8113 9.89987 34.1003 10.1888 34.4569 10.1888H38.016C38.3726 10.1888 38.6616 9.89987 38.6616 9.54322V6.87391C38.6616 6.51727 38.3726 6.22834 38.016 6.22834H36.8819V4.85016H39.7956C40.1175 4.85016 40.3903 4.61297 40.435 4.29414C40.4797 3.97531 40.2825 3.67238 39.973 3.58387L27.5312 0.0293048C27.5305 0.029047 27.5297 0.0288751 27.529 0.0287032L27.516 0.0250079C27.5109 0.023547 27.5059 0.0227735 27.5008 0.0214845C27.487 0.0178751 27.4731 0.0144376 27.4589 0.0117735C27.4486 0.00979691 27.4384 0.00850785 27.428 0.0070469C27.4178 0.00558596 27.4077 0.00403908 27.3973 0.00309376C27.383 0.00180469 27.3687 0.00128907 27.3545 0.000945316C27.3492 0.000687503 27.344 0 27.3387 0H27.3248C27.3242 0 27.3235 0 27.3229 0H16.6776C16.6765 0 16.6753 0 16.6742 0H16.6616C16.6567 0 16.6519 0.000601565 16.647 0.00077344C16.6322 0.00111719 16.6174 0.00163282 16.6026 0.00300782C16.5927 0.0038672 16.583 0.00541408 16.5731 0.00678909C16.5625 0.00833597 16.5518 0.00962504 16.541 0.0116875C16.5271 0.0143516 16.5134 0.0177032 16.4999 0.0212266C16.4947 0.0226017 16.4894 0.0233751 16.4842 0.024836L16.4708 0.0287032C16.4703 0.0288751 16.4698 0.028961 16.4692 0.0291329L4.02729 3.58387C3.71774 3.67238 3.52069 3.97531 3.56538 4.29414C3.61006 4.61297 3.88283 4.85016 4.20475 4.85016H7.11831V6.22826H5.98418C5.62763 6.22826 5.33862 6.51718 5.33862 6.87382V9.54322C5.33862 9.89987 5.62763 10.1888 5.98418 10.1888H9.5433C9.89986 10.1888 10.1889 9.89987 10.1889 9.54322V6.87391C10.1889 6.51727 9.89986 6.22834 9.5433 6.22834H8.40926V4.85016H16.016V10.8358L4.02729 14.2611C3.71774 14.3496 3.52069 14.6526 3.56538 14.9714C3.61006 15.2902 3.88283 15.5274 4.20475 15.5274H7.11831V16.9055H5.98418C5.62763 16.9055 5.33862 17.1944 5.33862 17.5511V20.2205C5.33862 20.5771 5.62763 20.8661 5.98418 20.8661H9.5433C9.89986 20.8661 10.1889 20.5771 10.1889 20.2205V17.5511C10.1889 17.1944 9.89986 16.9055 9.5433 16.9055H8.40926V15.5274H16.016V21.9096L13.3757 31.1501C13.3757 31.1505 13.3756 31.1509 13.3754 31.1513L13.3702 31.1692C13.3702 31.1695 13.3701 31.1698 13.37 31.1701L13.3688 31.1743C13.3686 31.1751 13.3683 31.1758 13.3681 31.1765L10.8358 40.0393H9.54313C9.18657 40.0393 8.89756 40.3282 8.89756 40.6849V42.7088H7.57842C7.22186 42.7088 6.93285 42.9977 6.93285 43.3543C6.93285 43.711 7.22186 43.9999 7.57842 43.9999H9.5433H34.4571H36.4218C36.7783 43.9999 37.0674 43.711 37.0674 43.3543C37.0674 42.9977 36.7783 42.7088 36.4218 42.7088H35.1026V40.6849C35.1026 40.3282 34.8136 40.0393 34.4571 40.0393H33.1644L30.6322 31.1771C30.6319 31.1758 30.6315 31.1745 30.6311 31.1732L30.6253 31.1526C30.6249 31.1516 30.6247 31.1506 30.6244 31.1495L27.9843 21.9095V15.5273H35.5909V16.9054H34.457C34.1004 16.9054 33.8114 17.1944 33.8114 17.551V20.2204C33.8114 20.577 34.1004 20.866 34.457 20.866H38.0161C38.3727 20.866 38.6617 20.577 38.6617 20.2204V17.5511C38.6617 17.1944 38.3727 16.9055 38.0161 16.9055H36.882V15.5274H39.7957C40.1176 15.5274 40.3904 15.2902 40.4351 14.9714C40.4795 14.6526 40.2824 14.3496 39.9729 14.2611ZM37.3705 7.51947V8.89775H35.1025V7.51947H37.3705ZM27.9842 1.50151L35.1862 3.55912H27.9842V1.50151ZM8.89773 7.51947V8.89775H6.62975V7.51947H8.89773ZM8.89773 18.1966V19.5748H6.62975V18.1966H8.89773ZM17.3071 1.29113H26.6931V3.55912H17.3071V1.29113ZM26.6931 4.85016V10.1165L18.7935 4.85016H26.6931ZM17.3071 5.4109L25.2065 10.6772H17.3071V5.4109ZM17.3071 11.9683H26.6931V14.2364H17.3071V11.9683ZM16.0402 30.6969L22.0002 26.525L27.9602 30.6969H16.0402ZM27.2735 31.988L22.0001 34.6248L16.7268 31.988H27.2735ZM18.7096 22.6456H25.2907L22.0001 24.9489L18.7096 22.6456ZM26.6931 15.5274V20.7937L18.7936 15.5274H26.6931ZM17.3071 16.0881L25.2068 21.3545H17.3071V16.0881ZM8.81395 3.55903L16.016 1.50142V3.55903H8.81395ZM8.81395 14.2363L16.016 12.1785V14.2363H8.81395ZM17.0334 23.0484L20.8744 25.737L15.113 29.7699L17.0334 23.0484ZM14.3993 32.2677L20.5566 35.3464L12.3467 39.4514L14.3993 32.2677ZM32.677 41.3309H32.6771C32.6779 41.3309 32.6788 41.3307 32.6795 41.3307H33.8116V42.709H33.8115H10.189V41.3307H11.321C11.3218 41.3307 11.3226 41.3309 11.3234 41.3309C11.3243 41.3309 11.3253 41.3307 11.3263 41.3307H11.3356C11.3367 41.3307 11.3379 41.3307 11.339 41.3307H17.4192C17.7758 41.3307 18.0648 41.0418 18.0648 40.6851C18.0648 40.3285 17.7758 40.0396 17.4192 40.0396H14.0574L22.0001 36.0682L29.9428 40.0396H20.2973C19.9408 40.0396 19.6518 40.3285 19.6518 40.6851C19.6518 41.0418 19.9408 41.3307 20.2973 41.3307H32.674C32.675 41.3307 32.676 41.3309 32.677 41.3309ZM31.6535 39.4514L23.4436 35.3464L29.601 32.2677L31.6535 39.4514ZM28.8874 29.77L23.1258 25.737L26.9668 23.0484L28.8874 29.77ZM27.9842 14.2363V12.1786L35.1863 14.2363H27.9842ZM37.3705 18.1966V19.5748H35.1025V18.1966H37.3705Z" fill="#2A2A2A"/>
</svg>
