<svg width="40" height="40" viewBox="0 0 40 40" fill="none" xmlns="http://www.w3.org/2000/svg">
<path d="M3.58086 18.5882H36.4191C38.3936 18.5882 39.9999 16.9685 39.9999 14.9776C39.9999 12.9868 38.3936 11.3672 36.4191 11.3672H3.58086C1.60641 11.3672 0 12.9868 0 14.9776C0 16.9685 1.60641 18.5882 3.58086 18.5882ZM38.4375 14.9776C38.4375 16.1069 37.532 17.0257 36.4191 17.0257C35.3062 17.0257 34.4007 16.1069 34.4007 14.9776C34.4007 13.8483 35.3062 12.9297 36.4191 12.9297C37.532 12.9297 38.4375 13.8484 38.4375 14.9776ZM3.58086 12.9297H33.4715C33.0723 13.512 32.8382 14.2178 32.8382 14.9776C32.8382 15.7376 33.0723 16.4433 33.4715 17.0257H3.58086C2.46797 17.0257 1.5625 16.107 1.5625 14.9776C1.5625 13.8484 2.46797 12.9297 3.58086 12.9297Z" fill="#2A2A2A"/>
<path d="M36.4191 21.4119H3.58086C1.60641 21.4119 0 23.0316 0 25.0225C0 27.0133 1.60641 28.633 3.58086 28.633H17.5555C17.987 28.633 18.3368 28.2832 18.3368 27.8517C18.3368 27.4202 17.987 27.0705 17.5555 27.0705H6.52852C6.92773 26.4881 7.1618 25.7823 7.1618 25.0225C7.1618 24.2626 6.92773 23.5568 6.52852 22.9744H36.4191C37.5321 22.9744 38.4375 23.8932 38.4375 25.0225C38.4375 26.1518 37.532 27.0705 36.4191 27.0705H24.6191C24.1876 27.0705 23.8378 27.4202 23.8378 27.8517C23.8378 28.2832 24.1876 28.633 24.6191 28.633H36.4191C38.3937 28.633 40 27.0133 40 25.0225C40 23.0316 38.3937 21.4119 36.4191 21.4119ZM5.5993 25.0225C5.5993 26.1518 4.69383 27.0705 3.58094 27.0705C2.46797 27.0705 1.5625 26.1517 1.5625 25.0225C1.5625 23.8932 2.46797 22.9744 3.58086 22.9744C4.69383 22.9744 5.5993 23.8932 5.5993 25.0225Z" fill="#2A2A2A"/>
<path d="M21.8228 27.5532C21.7014 27.2571 21.4006 27.0635 21.0811 27.0713C20.7478 27.0794 20.4521 27.3072 20.3545 27.6251C20.2605 27.9314 20.371 28.277 20.6262 28.4712C20.8884 28.6708 21.2543 28.6846 21.5302 28.5044C21.8399 28.3019 21.965 27.8947 21.8228 27.5532Z" fill="#2A2A2A"/>
</svg>
