<svg width="44" height="44" viewBox="0 0 44 44" fill="none" xmlns="http://www.w3.org/2000/svg">
<path d="M27.493 42.105H15.4964C14.9681 42.1044 14.4616 41.8942 14.088 41.5205C13.7145 41.1469 13.5044 40.6403 13.5039 40.1119V21.0486C13.5047 20.5204 13.7149 20.0141 14.0884 19.6406C14.4619 19.2671 14.9682 19.0569 15.4964 19.0562H27.493C28.0213 19.0568 28.5278 19.2669 28.9014 19.6404C29.275 20.0139 29.4853 20.5203 29.486 21.0486V40.1119C29.4854 40.6403 29.2752 41.1469 28.9016 41.5206C28.528 41.8942 28.0214 42.1044 27.493 42.105ZM15.4964 20.243C15.3908 20.243 15.2861 20.264 15.1886 20.3045C15.091 20.345 15.0023 20.4044 14.9277 20.4793C14.8531 20.5541 14.794 20.6429 14.7538 20.7406C14.7135 20.8383 14.6929 20.943 14.6931 21.0486V40.1119C14.6933 40.325 14.7779 40.5293 14.9285 40.68C15.0791 40.8307 15.2834 40.9155 15.4964 40.9158H27.493C27.7061 40.9155 27.9104 40.8307 28.0611 40.68C28.2117 40.5293 28.2965 40.325 28.2969 40.1119V21.0486C28.2965 20.8356 28.2117 20.6314 28.061 20.4808C27.9103 20.3302 27.706 20.2455 27.493 20.2453L15.4964 20.243Z" fill="#2A2A2A"/>
<path d="M28.7357 24.3784H14.2543C14.0966 24.3784 13.9454 24.3157 13.8339 24.2042C13.7224 24.0927 13.6597 23.9415 13.6597 23.7838C13.6597 23.6261 13.7224 23.4748 13.8339 23.3633C13.9454 23.2518 14.0966 23.1892 14.2543 23.1892H28.7357C28.8934 23.1892 29.0446 23.2518 29.1561 23.3633C29.2676 23.4748 29.3303 23.6261 29.3303 23.7838C29.3303 23.9415 29.2676 24.0927 29.1561 24.2042C29.0446 24.3157 28.8934 24.3784 28.7357 24.3784Z" fill="#2A2A2A"/>
<path d="M18.9642 20.2429H15.8598C15.7228 20.2429 15.5899 20.1956 15.4837 20.1089C15.3775 20.0222 15.3045 19.9015 15.2771 19.7672C14.9545 17.8823 14.1607 16.1096 12.9693 14.6137C11.778 13.1178 10.2279 11.9473 8.46304 11.211C8.31776 11.1498 8.20271 11.0335 8.14317 10.8876C8.08364 10.7416 8.08448 10.578 8.14554 10.4327L9.33116 7.61546C9.39232 7.47047 9.50845 7.35564 9.65412 7.29612C9.79979 7.23661 9.96311 7.23726 10.1083 7.29794C16.9979 10.199 18.9803 16.2169 19.5481 19.5466C19.5626 19.6319 19.5584 19.7193 19.5356 19.8027C19.5129 19.8862 19.4723 19.9637 19.4165 20.0298C19.3607 20.0959 19.2912 20.1491 19.2128 20.1856C19.1344 20.2221 19.0489 20.241 18.9624 20.2411L18.9642 20.2429ZM16.3373 19.0537H18.2459C17.4991 15.4962 15.471 11.0861 10.1927 8.63459L9.4679 10.3589C11.2084 11.1768 12.735 12.388 13.9271 13.8969C15.1193 15.4058 15.9444 17.1712 16.3373 19.0537Z" fill="#2A2A2A"/>
<path d="M27.3388 20.2429H24.2171C24.1306 20.2428 24.0452 20.2239 23.9668 20.1874C23.8884 20.1509 23.8188 20.0977 23.7631 20.0316C23.7073 19.9655 23.6666 19.888 23.6439 19.8045C23.6212 19.7211 23.6169 19.6336 23.6315 19.5484C24.1993 16.2186 26.1817 10.199 33.0713 7.29971C33.1433 7.26941 33.2206 7.2536 33.2987 7.25318C33.3769 7.25277 33.4543 7.26777 33.5267 7.29731C33.599 7.32686 33.6648 7.37037 33.7203 7.42536C33.7758 7.48036 33.82 7.54576 33.8502 7.61782L35.0358 10.435C35.0969 10.5803 35.0977 10.744 35.0382 10.8899C34.9786 11.0359 34.8636 11.1522 34.7183 11.2134C30.1809 13.1244 28.5173 16.9215 27.9209 19.7719C27.8925 19.9053 27.8192 20.0248 27.7133 20.1105C27.6073 20.1963 27.4751 20.243 27.3388 20.2429ZM24.936 19.0537H26.8637C27.2588 17.1747 28.0826 15.4123 29.2707 13.9039C30.4588 12.3956 31.9792 11.182 33.7134 10.3577L32.988 8.63339C27.708 11.0855 25.6822 15.4962 24.936 19.0537Z" fill="#2A2A2A"/>
<path d="M23.2964 20.243H19.6932C19.5355 20.243 19.3842 20.1803 19.2727 20.0688C19.1612 19.9573 19.0986 19.8061 19.0986 19.6484V3.75304C19.0986 3.59535 19.1612 3.44411 19.2727 3.3326C19.3842 3.22109 19.5355 3.15845 19.6932 3.15845H23.2964C23.4541 3.15845 23.6054 3.22109 23.7169 3.3326C23.8284 3.44411 23.891 3.59535 23.891 3.75304V19.6484C23.891 19.8061 23.8284 19.9573 23.7169 20.0688C23.6054 20.1803 23.4541 20.243 23.2964 20.243ZM20.2878 19.0538H22.7018V4.34764H20.2878V19.0538Z" fill="#2A2A2A"/>
<path d="M9.27583 9.87673C9.19537 9.87682 9.11574 9.86058 9.04174 9.829C8.96775 9.79742 8.90093 9.75115 8.84534 9.693C8.0726 9.02462 7.1275 8.58699 6.11793 8.43008C6.04049 8.41617 5.96657 8.38703 5.90047 8.34435C5.83437 8.30167 5.7774 8.24629 5.73286 8.18143C5.68832 8.11657 5.65709 8.04351 5.641 7.96649C5.6249 7.88947 5.62425 7.81002 5.63908 7.73275C5.65391 7.65548 5.68394 7.58192 5.72741 7.51633C5.77088 7.45075 5.82693 7.39445 5.89233 7.35069C5.95772 7.30693 6.03114 7.27658 6.10835 7.26141C6.18556 7.24623 6.26501 7.24653 6.3421 7.26229C7.59788 7.45795 8.76842 8.01851 9.7081 8.87424C9.78773 8.9587 9.84089 9.06462 9.86104 9.17894C9.88118 9.29326 9.86743 9.41097 9.82147 9.51757C9.7755 9.62416 9.69935 9.71497 9.60239 9.77879C9.50543 9.84261 9.39191 9.87666 9.27583 9.87673Z" fill="#2A2A2A"/>
<path d="M33.8522 9.7513C33.7309 9.75146 33.6126 9.71456 33.5129 9.64554C33.4132 9.57653 33.337 9.4787 33.2945 9.36517C33.252 9.25164 33.2453 9.12784 33.2751 9.01034C33.3049 8.89285 33.37 8.78728 33.4615 8.70779C34.3789 7.95289 35.48 7.45474 36.6527 7.26412C36.8077 7.23502 36.9679 7.2687 37.0981 7.35774C37.2283 7.44677 37.3178 7.58388 37.3469 7.7389C37.376 7.89391 37.3423 8.05414 37.2533 8.18432C37.1642 8.31451 37.0271 8.40399 36.8721 8.43309C35.9081 8.58702 35.0013 8.99111 34.2422 9.60503C34.1341 9.69923 33.9956 9.75118 33.8522 9.7513Z" fill="#2A2A2A"/>
<path d="M21.4945 4.34753C21.3368 4.34753 21.1856 4.28489 21.0741 4.17338C20.9625 4.06187 20.8999 3.91063 20.8999 3.75294V1.07726C20.8999 0.919564 20.9625 0.768327 21.0741 0.656819C21.1856 0.545311 21.3368 0.482666 21.4945 0.482666C21.6522 0.482666 21.8034 0.545311 21.9149 0.656819C22.0264 0.768327 22.0891 0.919564 22.0891 1.07726V3.75294C22.0891 3.91063 22.0264 4.06187 21.9149 4.17338C21.8034 4.28489 21.6522 4.34753 21.4945 4.34753Z" fill="#2A2A2A"/>
</svg>
