<svg id="Layer_1" data-name="Layer 1" xmlns="http://www.w3.org/2000/svg" viewBox="0 0 205.11 44.56"><defs><style>.cls-1,.cls-2{fill:#fff;}.cls-2{font-size:33px;font-family:Lato;font-weight:700;}.cls-3{fill:none;}</style></defs><title>logo-white</title><path class="cls-1" d="M231,431.79V421.66h-5.81L225,420.1l5-3.94-4.25-7.75-6.12,2.38-1.25-1.37,2.81-5.25-7.75-4.5-4.06,5.5-1.44-.75v-5.75h-9.75v5.75l-1.44.75-4.06-5.5-7.75,4.5,2.81,5.25-1.25,1.38-6.12-2.37-4.25,7.75,5,3.94L181,421.66h-5.81v10.13h6v2.56L176.6,437l3.19,6.25a17.36,17.36,0,0,1,10.68-5.87,16.38,16.38,0,1,1,25.26,0,16.75,16.75,0,0,1,10.68,5.87L229.6,437,225,434.35v-2.56h6Z" transform="translate(-175.22 -398.66)"/><path class="cls-1" d="M203.31,443.23h21.25a21.65,21.65,0,0,0-11.33-4.48V426.5h-4.75v9.75h-1.42l-2-22.67h-1.75v29.65Z" transform="translate(-175.22 -398.66)"/><path class="cls-1" d="M203.89,443.23H182.64A21.65,21.65,0,0,1,194,438.75V419.5h4.75v16.75h1.42l2-22.67h1.75v29.65Z" transform="translate(-175.22 -398.66)"/><text class="cls-2" transform="translate(67.5 35.67)">Solustrid</text><rect class="cls-3" x="201.11" y="10.42" width="4" height="25.25"/></svg>